<svg width="48" height="38" viewBox="0 0 48 38" fill="none" xmlns="http://www.w3.org/2000/svg">
<g filter="url(#filter0_d_3140_12)">
<path fill-rule="evenodd" clip-rule="evenodd" d="M4 2.87234C4 1.28599 5.36591 0 7.05085 0H40.9492C42.6341 0 44 1.28599 44 2.87234C44 4.45869 42.6341 5.74468 40.9492 5.74468H7.05085C5.36591 5.74468 4 4.45869 4 2.87234ZM4 15C4 13.4137 5.36591 12.1277 7.05085 12.1277H40.9492C42.6341 12.1277 44 13.4137 44 15C44 16.5863 42.6341 17.8723 40.9492 17.8723H7.05085C5.36591 17.8723 4 16.5863 4 15ZM4 27.1277C4 25.5413 5.36591 24.2553 7.05085 24.2553H40.9492C42.6341 24.2553 44 25.5413 44 27.1277C44 28.714 42.6341 30 40.9492 30H7.05085C5.36591 30 4 28.714 4 27.1277Z" fill="white"/>
</g>
<defs>
<filter id="filter0_d_3140_12" x="0" y="0" width="48" height="38" filterUnits="userSpaceOnUse" color-interpolation-filters="sRGB">
<feFlood flood-opacity="0" result="BackgroundImageFix"/>
<feColorMatrix in="SourceAlpha" type="matrix" values="0 0 0 0 0 0 0 0 0 0 0 0 0 0 0 0 0 0 127 0" result="hardAlpha"/>
<feOffset dy="4"/>
<feGaussianBlur stdDeviation="2"/>
<feComposite in2="hardAlpha" operator="out"/>
<feColorMatrix type="matrix" values="0 0 0 0 0 0 0 0 0 0 0 0 0 0 0 0 0 0 0.25 0"/>
<feBlend mode="normal" in2="BackgroundImageFix" result="effect1_dropShadow_3140_12"/>
<feBlend mode="normal" in="SourceGraphic" in2="effect1_dropShadow_3140_12" result="shape"/>
</filter>
</defs>
</svg>
