<svg width="14" height="16" viewBox="0 0 14 16" fill="none" xmlns="http://www.w3.org/2000/svg">
<path fill-rule="evenodd" clip-rule="evenodd" d="M3.37107 1.26667C3.37107 0.567106 3.89377 0 4.53855 0H9.0856C9.73039 0 10.2531 0.567106 10.2531 1.26667V2.4H12.5266C12.8999 2.4 13.2025 2.72832 13.2025 3.13333C13.2025 3.53834 12.8999 3.86667 12.5266 3.86667H12.0355C12.0752 4.01475 12.0965 4.17134 12.0965 4.33333V14.3333C12.0965 15.2538 11.4087 16 10.5603 16H3.18673C2.33833 16 1.65056 15.2538 1.65056 14.3333V4.33333C1.65056 4.17134 1.67186 4.01475 1.71159 3.86667H1.09754C0.724247 3.86667 0.421631 3.53834 0.421631 3.13333C0.421631 2.72832 0.724247 2.4 1.09754 2.4H3.37107V1.26667ZM4.72289 2.4H8.90127V1.46667H4.72289V2.4ZM3.18673 4.13333C3.08492 4.13333 3.00239 4.22288 3.00239 4.33333V14.3333C3.00239 14.4438 3.08492 14.5333 3.18673 14.5333H10.5603C10.6621 14.5333 10.7447 14.4438 10.7447 14.3333V4.33333C10.7447 4.22288 10.6621 4.13333 10.5603 4.13333H3.18673ZM4.53855 5.73333C4.91185 5.73333 5.21447 6.06166 5.21447 6.46667V12.468C5.21447 12.873 4.91185 13.2013 4.53855 13.2013C4.16526 13.2013 3.86264 12.873 3.86264 12.468V6.46667C3.86264 6.06166 4.16526 5.73333 4.53855 5.73333ZM6.87353 5.73333C7.24682 5.73333 7.54944 6.06166 7.54944 6.46667V12.468C7.54944 12.873 7.24682 13.2013 6.87353 13.2013C6.50023 13.2013 6.19761 12.873 6.19761 12.468V6.46667C6.19761 6.06166 6.50023 5.73333 6.87353 5.73333ZM9.2085 5.73333C9.58179 5.73333 9.88441 6.06166 9.88441 6.46667V12.468C9.88441 12.873 9.58179 13.2013 9.2085 13.2013C8.8352 13.2013 8.53259 12.873 8.53259 12.468V6.46667C8.53259 6.06166 8.8352 5.73333 9.2085 5.73333Z" fill="#B93857"/>
</svg>
